<svg width="32" height="32" viewBox="0 0 32 32" fill="none" xmlns="http://www.w3.org/2000/svg">
  <rect width="32" height="32" rx="3" fill="white" />
  <path d="M16.0019 14.5026C11.6607 14.5026 5.5495 21.2138 5.5495 25.4528C5.50136 27.3617 6.96393 28.5048 9.42744 28.5048C12.0966 28.5048 13.8633 27.1319 16.0019 27.1319C18.1624 27.1319 19.9345 28.5048 22.5764 28.5048C24.9884 28.5048 26.5002 27.3628 26.5002 25.4555C26.4543 21.2193 20.3448 14.5026 16.0019 14.5026ZM7.95065 13.8135C7.38345 11.9199 5.62607 10.6892 4.03332 11.0721C2.44058 11.455 1.61117 13.2993 2.17858 15.1918C2.74578 17.0898 4.50316 18.3204 6.09591 17.9375C7.68866 17.5547 8.51402 15.706 7.95065 13.8135V13.8135ZM12.5834 12.6758C14.2719 12.2314 15.1197 9.99022 14.4704 7.56883C13.8212 5.14744 11.927 3.67995 10.232 4.0754C8.54355 4.51981 7.69577 6.76097 8.34501 9.18237C8.99534 11.5545 10.8878 13.1243 12.5834 12.6758ZM27.9748 11.0732C26.3821 10.7396 24.6247 11.921 24.0575 13.8146C23.4903 15.7087 24.3173 17.5541 25.9101 17.937C27.5028 18.2706 29.2531 17.0892 29.8274 15.1956C30.3924 13.2993 29.5173 11.4561 27.9748 11.0732V11.0732ZM19.4204 12.6758C21.0667 13.1202 23.0095 11.5545 23.6588 9.18237C24.308 6.8102 23.4605 4.51953 21.7718 4.0754C20.1254 3.631 18.1826 5.19667 17.5334 7.56883C16.8825 9.941 17.7303 12.2328 19.4204 12.6758Z" fill="#393939" />
</svg>
  